<svg xmlns="http://www.w3.org/2000/svg" viewBox="0 0 1024 1024" role="img" aria-labelledby="title desc">
  <title id="title">HOI Yashobhoomi Business Center</title>
  <desc id="desc">Orange circular HOI logo with white Yashobhoomi Business Center text.</desc>
  <defs>
    <radialGradient id="orangeGlow" cx="38%" cy="28%" r="78%">
      <stop offset="0%" stop-color="#f47d33"/>
      <stop offset="65%" stop-color="#f36f27"/>
      <stop offset="100%" stop-color="#ef6d25"/>
    </radialGradient>
  </defs>
  <rect width="1024" height="1024" fill="#ffffff"/>
  <g transform="translate(512 512)">
    <path d="M 0 -485
      C 190 -484, 312 -398, 406 -276
      C 485 -174, 520 -39, 496 88
      C 468 231, 386 341, 276 423
      C 155 513, 8 555, -136 522
      C -274 491, -394 401, -471 282
      C -553 156, -556 -2, -523 -142
      C -490 -286, -385 -404, -257 -465
      C -172 -506, -89 -486, 0 -485 Z"
      fill="url(#orangeGlow)"/>

    <text x="0" y="-38"
      text-anchor="middle"
      fill="#ffffff"
      font-family="Arial, Helvetica, sans-serif"
      font-size="270"
      font-weight="800"
      letter-spacing="-22">hoi</text>

    <rect x="214" y="-258" width="58" height="58" fill="#ffffff" transform="rotate(45 243 -229)"/>
    <rect x="240" y="-234" width="24" height="160" fill="#ffffff" transform="rotate(45 252 -154)"/>

    <text x="0" y="180"
      text-anchor="middle"
      fill="#ffffff"
      font-family="Arial, Helvetica, sans-serif"
      font-size="84"
      font-weight="800"
      letter-spacing="1">YASHOBHOOMI</text>
    <text x="0" y="258"
      text-anchor="middle"
      fill="#ffffff"
      font-family="Arial, Helvetica, sans-serif"
      font-size="74"
      font-weight="700">Business Center</text>
    <text x="0" y="334"
      text-anchor="middle"
      fill="#ffffff"
      font-family="Arial, Helvetica, sans-serif"
      font-size="54"
      font-weight="600"
      opacity="0.98">यशोभूमि बिज़नेस सेंटर</text>
  </g>
</svg>
